<svg width="184" height="45" viewBox="0 0 184 45" fill="none" xmlns="http://www.w3.org/2000/svg"><g opacity="0.5" clip-path="url(#clip0_1_17753)"><path fill-rule="evenodd" clip-rule="evenodd" d="M10.0004 4.27114C8.43019 5.3691 7.01027 6.66724 5.77766 8.12855C10.8147 7.66092 17.2141 8.42451 24.6437 12.1393C32.5775 16.1062 38.9662 16.2403 43.4124 15.3826C43.0089 14.1612 42.501 12.9872 41.8994 11.8712C36.8097 12.408 30.2847 11.6975 22.6804 7.89541C17.8515 5.48099 13.595 4.48642 10.0004 4.27114ZM38.9262 7.63932C34.9069 3.14848 29.0658 0.322266 22.5645 0.322266C20.6552 0.322266 18.8028 0.566042 17.0368 1.02413C19.4286 1.67675 21.9695 2.63152 24.6437 3.96865C30.2112 6.75235 35.0178 7.64866 38.9262 7.63932ZM44.363 19.6702C38.9915 20.7308 31.5741 20.513 22.6804 16.0661C14.3657 11.9088 7.7479 11.9611 3.28464 12.953C3.05426 13.0041 2.8293 13.0579 2.60978 13.1139C2.02543 14.3847 1.55898 15.7211 1.2243 17.1089C1.58175 17.0134 1.95113 16.9226 2.33224 16.8379C7.74696 15.6346 15.3975 15.6869 24.6437 20.31C32.9585 24.4674 39.5762 24.415 44.0396 23.4232C44.1924 23.3892 44.3431 23.3541 44.4913 23.3179C44.5076 22.9718 44.5157 22.6236 44.5157 22.2735C44.5157 21.3927 44.4639 20.5239 44.363 19.6702ZM43.7746 27.9504C38.4553 28.8803 31.2538 28.5234 22.6804 24.2368C14.3657 20.0794 7.7479 20.1318 3.28464 21.1237C2.29392 21.3437 1.40269 21.6118 0.616497 21.8949C0.614354 22.0208 0.613281 22.147 0.613281 22.2735C0.613281 34.3968 10.4412 44.2247 22.5645 44.2247C32.7247 44.2247 41.2727 37.322 43.7746 27.9504Z" fill="#161E2D"></path><path d="M67.8761 29.2566C66.6293 29.2566 65.4702 29.0283 64.399 28.5717C63.3454 28.1151 62.4322 27.4829 61.6595 26.6751C60.9044 25.8498 60.3512 24.8927 60 23.8039L62.9766 22.5132C63.4507 23.6371 64.1356 24.5239 65.0312 25.1737C65.9268 25.8059 66.9366 26.122 68.0605 26.122C68.6927 26.122 69.2371 26.0254 69.6937 25.8322C70.1678 25.6215 70.5278 25.3405 70.7737 24.9893C71.0371 24.6381 71.1688 24.2166 71.1688 23.7249C71.1688 23.1454 70.9932 22.6712 70.6419 22.3024C70.3083 21.9161 69.799 21.6176 69.1141 21.4068L65.3473 20.1951C63.8195 19.721 62.6693 19.0098 61.8966 18.0615C61.1239 17.1132 60.7376 15.998 60.7376 14.7161C60.7376 13.5922 61.0098 12.6 61.5541 11.7395C62.1161 10.879 62.8888 10.2117 63.8722 9.73756C64.8732 9.24585 66.0146 9 67.2966 9C68.4732 9 69.5532 9.21073 70.5366 9.63219C71.52 10.0361 72.3629 10.6068 73.0654 11.3444C73.7854 12.0644 74.321 12.9161 74.6722 13.8995L71.722 15.2166C71.3356 14.2332 70.7561 13.478 69.9834 12.9512C69.2107 12.4068 68.3151 12.1346 67.2966 12.1346C66.6995 12.1346 66.1727 12.24 65.7161 12.4507C65.2595 12.6439 64.8995 12.9249 64.6361 13.2937C64.3902 13.6449 64.2673 14.0663 64.2673 14.5581C64.2673 15.1024 64.4429 15.5854 64.7941 16.0068C65.1454 16.4107 65.681 16.7268 66.401 16.9551L70.0098 18.0878C71.5727 18.5971 72.7405 19.2995 73.5132 20.1951C74.3034 21.0907 74.6985 22.1971 74.6985 23.5141C74.6985 24.6381 74.4088 25.6302 73.8293 26.4907C73.2498 27.3512 72.4507 28.0273 71.4322 28.519C70.4137 29.0107 69.2283 29.2566 67.8761 29.2566Z" fill="#161E2D"></path><path d="M77.6346 28.9405V9H81.0853V17.4293L80.6112 16.9288C80.9448 16.0683 81.4892 15.4185 82.2443 14.9795C83.017 14.5229 83.9126 14.2946 84.9312 14.2946C85.9848 14.2946 86.9156 14.5229 87.7234 14.9795C88.5487 15.4361 89.1897 16.0771 89.6463 16.9024C90.1029 17.7102 90.3312 18.6498 90.3312 19.721V28.9405H86.8804V20.5376C86.8804 19.9054 86.7575 19.361 86.5116 18.9044C86.2658 18.4478 85.9234 18.0966 85.4843 17.8507C85.0629 17.5873 84.5624 17.4556 83.9829 17.4556C83.4209 17.4556 82.9204 17.5873 82.4814 17.8507C82.0424 18.0966 81.6999 18.4478 81.4541 18.9044C81.2082 19.361 81.0853 19.9054 81.0853 20.5376V28.9405H77.6346Z" fill="#161E2D"></path><path d="M97.5954 29.2566C96.5945 29.2566 95.7252 29.0898 94.9876 28.7561C94.2501 28.4224 93.6793 27.9483 93.2754 27.3337C92.8715 26.7015 92.6696 25.9727 92.6696 25.1473C92.6696 24.3571 92.8452 23.6546 93.1964 23.04C93.5476 22.4078 94.092 21.881 94.8296 21.4595C95.5671 21.0381 96.4979 20.7395 97.6218 20.5639L102.311 19.8V22.4341L98.2803 23.119C97.5954 23.242 97.0862 23.4615 96.7525 23.7776C96.4188 24.0937 96.252 24.5063 96.252 25.0156C96.252 25.5073 96.4364 25.9024 96.8052 26.201C97.1915 26.482 97.6657 26.6224 98.2276 26.6224C98.9476 26.6224 99.5798 26.4732 100.124 26.1746C100.686 25.8585 101.116 25.4283 101.415 24.8839C101.731 24.3395 101.889 23.7424 101.889 23.0927V19.4049C101.889 18.7902 101.643 18.281 101.152 17.8771C100.677 17.4556 100.045 17.2449 99.2549 17.2449C98.5174 17.2449 97.8589 17.4468 97.2793 17.8507C96.7174 18.2371 96.3047 18.7551 96.0413 19.4049L93.2228 18.0351C93.5037 17.28 93.9428 16.6302 94.5398 16.0859C95.1545 15.5239 95.8745 15.0849 96.6998 14.7688C97.5252 14.4527 98.4208 14.2946 99.3867 14.2946C100.563 14.2946 101.599 14.5141 102.495 14.9532C103.391 15.3746 104.084 15.9717 104.576 16.7444C105.085 17.4995 105.34 18.3863 105.34 19.4049V28.9405H102.073V26.4907L102.811 26.4381C102.442 27.0527 102.003 27.5707 101.494 27.9922C100.985 28.3961 100.405 28.7122 99.7554 28.9405C99.1057 29.1512 98.3857 29.2566 97.5954 29.2566Z" fill="#161E2D"></path><path d="M108.529 28.9405V14.6107H111.769V17.4293L111.506 16.9288C111.839 16.0683 112.384 15.4185 113.139 14.9795C113.912 14.5229 114.807 14.2946 115.826 14.2946C116.879 14.2946 117.81 14.5229 118.618 14.9795C119.443 15.4361 120.084 16.0771 120.541 16.9024C120.997 17.7102 121.226 18.6498 121.226 19.721V28.9405H117.775V20.5376C117.775 19.9054 117.652 19.361 117.406 18.9044C117.16 18.4478 116.818 18.0966 116.379 17.8507C115.957 17.5873 115.457 17.4556 114.877 17.4556C114.316 17.4556 113.815 17.5873 113.376 17.8507C112.937 18.0966 112.595 18.4478 112.349 18.9044C112.103 19.361 111.98 19.9054 111.98 20.5376V28.9405H108.529Z" fill="#161E2D"></path><path d="M131.098 34.7356C130.027 34.7356 129.034 34.56 128.121 34.2088C127.208 33.8576 126.418 33.3659 125.751 32.7337C125.101 32.119 124.627 31.3902 124.328 30.5473L127.542 29.3356C127.752 30.0029 128.165 30.5385 128.78 30.9424C129.412 31.3639 130.185 31.5746 131.098 31.5746C131.8 31.5746 132.415 31.4429 132.942 31.1795C133.486 30.9161 133.908 30.5298 134.206 30.0205C134.505 29.5288 134.654 28.9317 134.654 28.2293V24.9629L135.312 25.7532C134.821 26.6137 134.162 27.2634 133.337 27.7024C132.512 28.1415 131.572 28.361 130.518 28.361C129.184 28.361 127.99 28.0537 126.936 27.439C125.882 26.8244 125.057 25.9815 124.46 24.9102C123.863 23.839 123.564 22.6361 123.564 21.3015C123.564 19.9493 123.863 18.7463 124.46 17.6927C125.057 16.639 125.873 15.8137 126.91 15.2166C127.946 14.602 129.122 14.2946 130.439 14.2946C131.511 14.2946 132.45 14.5229 133.258 14.9795C134.083 15.4185 134.768 16.0595 135.312 16.9024L134.838 17.7717V14.6107H138.105V28.2293C138.105 29.4761 137.797 30.5912 137.183 31.5746C136.586 32.5581 135.76 33.3307 134.707 33.8927C133.671 34.4546 132.468 34.7356 131.098 34.7356ZM130.94 25.1737C131.677 25.1737 132.318 25.0156 132.863 24.6995C133.425 24.3659 133.864 23.9093 134.18 23.3298C134.496 22.7502 134.654 22.0829 134.654 21.3278C134.654 20.5902 134.487 19.9317 134.153 19.3522C133.837 18.7551 133.398 18.2898 132.836 17.9561C132.292 17.6224 131.66 17.4556 130.94 17.4556C130.22 17.4556 129.57 17.6224 128.991 17.9561C128.411 18.2898 127.954 18.7551 127.621 19.3522C127.305 19.9317 127.147 20.5902 127.147 21.3278C127.147 22.0654 127.305 22.7239 127.621 23.3034C127.954 23.8829 128.402 24.3395 128.964 24.6732C129.544 25.0068 130.202 25.1737 130.94 25.1737Z" fill="#161E2D"></path><path d="M140.037 28.9405L145.042 21.7493L140.01 14.6107H144.067L147.992 20.4059H146.174L150.099 14.6107H154.129L149.124 21.7493L154.103 28.9405H150.073L146.201 23.1717H147.965L144.093 28.9405H140.037Z" fill="#161E2D"></path><path d="M156.016 28.9405V14.6107H159.467V28.9405H156.016ZM156.016 13.0039V9.3161H159.467V13.0039H156.016Z" fill="#161E2D"></path></g><defs><clipPath id="clip0_1_17753"><rect width="183.293" height="45" fill="white" transform="translate(0.5)"></rect></clipPath></defs></svg>