<svg width="182" height="35" viewBox="0 0 182 35" fill="none" xmlns="http://www.w3.org/2000/svg"><g opacity="0.5" clip-path="url(#clip0_1_17747)"><path d="M0 30.7538C5.56974 30.7538 10.0849 26.2386 10.0849 20.6689C10.0849 15.0991 5.56974 10.584 0 10.584V17.6434C1.67091 17.6434 3.02544 18.9979 3.02544 20.6689C3.02544 22.3398 1.67091 23.6943 0 23.6943V30.7538Z" fill="#161E2D"></path><path d="M33.6173 13.9459C31.8939 13.4 30.0587 13.1055 28.1546 13.1055C18.1755 13.1055 10.0859 21.1952 10.0859 31.1742C10.0859 32.1758 10.1674 33.1584 10.3241 34.1157H21.5508C21.1501 33.2171 20.9272 32.2217 20.9272 31.1742C20.9272 27.1826 24.163 23.9467 28.1546 23.9467C30.3363 23.9467 32.2921 24.9133 33.6173 26.4416V13.9459Z" fill="#161E2D"></path><path d="M1.77344 0.5C2.60954 8.06357 9.022 13.9465 16.8085 13.9465C24.5948 13.9465 31.0073 8.06357 31.8434 0.5H21.0251C20.3573 2.17427 18.721 3.35737 16.8085 3.35737C14.8958 3.35737 13.2596 2.17427 12.5917 0.5H1.77344Z" fill="#161E2D"></path><path d="M45.3164 7.33047H50.9477C52.4706 7.33047 53.6393 7.45 54.4539 7.68906C55.2773 7.92813 55.8927 8.27344 56.3 8.725C56.7161 9.17656 56.9951 9.72552 57.1367 10.3719C57.2872 11.0094 57.3625 12.001 57.3625 13.3469V15.2195C57.3625 16.5919 57.2208 17.5924 56.9375 18.2211C56.6542 18.8497 56.1318 19.3323 55.3703 19.6688C54.6177 20.0052 53.6305 20.1734 52.4086 20.1734H50.9078V28.8328H45.3164V7.33047ZM50.9078 11.0094V16.4813C51.0672 16.4901 51.2044 16.4945 51.3195 16.4945C51.8331 16.4945 52.1872 16.3706 52.382 16.1227C52.5857 15.8659 52.6875 15.3391 52.6875 14.5422V12.7758C52.6875 12.0409 52.5724 11.5628 52.3422 11.3414C52.112 11.1201 51.6339 11.0094 50.9078 11.0094Z" fill="#161E2D"></path><path d="M67.9344 7.33047L71.1352 28.8328H65.4109L65.132 24.968H63.1266L62.7945 28.8328H57.0039L59.8461 7.33047H67.9344ZM64.9727 21.1563C64.6893 18.7214 64.406 15.7154 64.1227 12.1383C63.556 16.2466 63.2018 19.2526 63.0602 21.1563H64.9727Z" fill="#161E2D"></path><path d="M84.5758 7.33047V28.8328H79.675L76.7664 19.0578V28.8328H72.0914V7.33047H76.7664L79.9008 17.0125V7.33047H84.5758Z" fill="#161E2D"></path><path d="M96.4891 7.33047L99.6898 28.8328H93.9656L93.6867 24.968H91.6812L91.3492 28.8328H85.5586L88.4008 7.33047H96.4891ZM93.5273 21.1563C93.244 18.7214 92.9607 15.7154 92.6773 12.1383C92.1107 16.2466 91.7565 19.2526 91.6148 21.1563H93.5273Z" fill="#161E2D"></path><path d="M100.646 7.33047H104.83C107.53 7.33047 109.354 7.45443 110.302 7.70234C111.258 7.95026 111.984 8.35755 112.48 8.92422C112.976 9.49089 113.285 10.124 113.409 10.8234C113.533 11.5141 113.595 12.8776 113.595 14.9141V22.4445C113.595 24.3747 113.502 25.6674 113.316 26.3227C113.139 26.969 112.825 27.4781 112.373 27.85C111.922 28.213 111.364 28.4698 110.7 28.6203C110.036 28.762 109.035 28.8328 107.698 28.8328H100.646V7.33047ZM106.237 11.0094V25.1539C107.043 25.1539 107.539 24.9945 107.725 24.6758C107.911 24.3482 108.004 23.4672 108.004 22.0328V13.6789C108.004 12.7049 107.973 12.0807 107.911 11.8063C107.849 11.5318 107.707 11.3326 107.486 11.2086C107.265 11.0758 106.848 11.0094 106.237 11.0094Z" fill="#161E2D"></path><path d="M128.457 19.9211C128.457 22.0815 128.404 23.6133 128.298 24.5164C128.2 25.4107 127.882 26.2297 127.341 26.9734C126.81 27.7172 126.089 28.2883 125.177 28.6867C124.265 29.0852 123.202 29.2844 121.989 29.2844C120.838 29.2844 119.802 29.0984 118.881 28.7266C117.969 28.3458 117.234 27.7792 116.677 27.0266C116.119 26.274 115.787 25.4549 115.68 24.5695C115.574 23.6841 115.521 22.1346 115.521 19.9211V16.2422C115.521 14.0818 115.57 12.5544 115.667 11.6602C115.773 10.757 116.092 9.93359 116.623 9.18984C117.164 8.44609 117.89 7.875 118.802 7.47656C119.714 7.07813 120.776 6.87891 121.989 6.87891C123.14 6.87891 124.172 7.06927 125.084 7.45C126.004 7.82188 126.744 8.38411 127.302 9.13672C127.859 9.88932 128.191 10.7083 128.298 11.5938C128.404 12.4792 128.457 14.0286 128.457 16.2422V19.9211ZM122.866 12.8555C122.866 11.8549 122.808 11.2174 122.693 10.943C122.587 10.6596 122.361 10.518 122.016 10.518C121.723 10.518 121.498 10.6331 121.338 10.8633C121.188 11.0846 121.112 11.7487 121.112 12.8555V22.8961C121.112 24.1445 121.161 24.9148 121.259 25.207C121.365 25.4992 121.604 25.6453 121.976 25.6453C122.357 25.6453 122.6 25.4771 122.706 25.1406C122.812 24.8042 122.866 24.0029 122.866 22.7367V12.8555Z" fill="#161E2D"></path><path d="M141.884 7.33047L139.932 16.8398L142.88 28.8328H137.701C137.081 26.6901 136.514 24.0826 136.001 21.0102C135.859 22.3648 135.664 23.8036 135.416 25.3266L134.885 28.8328H129.44L131.459 16.8398L129.44 7.33047H134.845C134.943 7.9237 135.137 8.91094 135.43 10.2922C135.66 11.3458 135.85 12.3109 136.001 13.1875L137.196 7.33047H141.884Z" fill="#161E2D"></path><path d="M156.162 7.33047V28.8328H151.261L148.352 19.0578V28.8328H143.677V7.33047H148.352L151.487 17.0125V7.33047H156.162Z" fill="#161E2D"></path></g><defs><clipPath id="clip0_1_17747"><rect width="181.333" height="34" fill="white" transform="translate(0 0.5)"></rect></clipPath></defs></svg>