<svg width="168" height="43" viewBox="0 0 168 43" fill="none" xmlns="http://www.w3.org/2000/svg"><g opacity="0.5"><path d="M19.0801 2.20508H42.3239L25.235 27.5342H1.99121L19.0801 2.20508Z" fill="#161E2D"></path><path d="M20.0984 29.8818L13.4795 39.6924H37.8259L54.9147 14.3633H36.9456L26.4756 29.8818H20.0984Z" fill="#161E2D"></path><path d="M75.2788 26.9907L74.749 30.0141H65.5366L66.0663 26.9907H75.2788ZM70.0459 11.2016L66.777 30.0141H62.9912L66.2472 11.2016H70.0459Z" fill="#161E2D"></path><path d="M91.0291 18.8636L90.4993 21.887H80.9509L81.4807 18.8636H91.0291ZM83.9485 11.2016L80.6796 30.0141H76.8939L80.1499 11.2016H83.9485ZM95.0345 11.2016L91.7655 30.0141H88.0056L91.2616 11.2016H95.0345Z" fill="#161E2D"></path><path d="M95.3058 28.2828C95.2972 27.697 95.491 27.2146 95.8872 26.8356C96.2921 26.4566 96.7831 26.2671 97.3602 26.2671C97.9115 26.2585 98.3852 26.4308 98.7815 26.784C99.1863 27.1285 99.3931 27.585 99.4017 28.1535C99.4103 28.7393 99.2122 29.2217 98.8073 29.6007C98.4111 29.9797 97.9244 30.1692 97.3473 30.1692C96.796 30.1778 96.3179 30.0098 95.9131 29.6653C95.5168 29.3121 95.3144 28.8513 95.3058 28.2828Z" fill="#161E2D"></path><path d="M113.924 11.2016L110.668 30.0141H106.883L110.152 11.2016H113.924ZM119.532 11.2016L119.002 14.238H104.105L104.635 11.2016H119.532Z" fill="#161E2D"></path><path d="M123.525 30.2725C122.568 30.2553 121.707 30.0744 120.94 29.7299C120.174 29.3767 119.532 28.8943 119.015 28.2828C118.507 27.6712 118.132 26.9605 117.891 26.1508C117.65 25.3411 117.564 24.4712 117.633 23.5409L117.684 23.0111C117.788 22.0378 118.025 21.1118 118.395 20.2332C118.765 19.3546 119.261 18.5793 119.881 17.9075C120.501 17.227 121.233 16.6972 122.077 16.3182C122.93 15.9306 123.878 15.7497 124.92 15.7755C125.893 15.7928 126.725 15.9909 127.414 16.3699C128.103 16.7489 128.658 17.2571 129.08 17.8945C129.503 18.532 129.791 19.2598 129.946 20.0781C130.101 20.8878 130.131 21.7363 130.037 22.6235L129.83 24.174H119.028L119.429 21.6932L126.561 21.7061L126.626 21.3831C126.694 20.9094 126.673 20.4701 126.561 20.0652C126.449 19.6517 126.238 19.3201 125.928 19.0703C125.618 18.8205 125.204 18.687 124.687 18.6698C124.093 18.6525 123.593 18.7774 123.189 19.0445C122.784 19.3115 122.452 19.6647 122.194 20.104C121.935 20.5433 121.737 21.0213 121.599 21.5382C121.462 22.0464 121.362 22.5374 121.302 23.0111L121.251 23.5279C121.207 23.9845 121.22 24.441 121.289 24.8975C121.358 25.3455 121.492 25.7503 121.69 26.1121C121.897 26.4739 122.177 26.7667 122.53 26.9907C122.891 27.2146 123.344 27.3352 123.886 27.3525C124.575 27.3697 125.209 27.2362 125.786 26.9519C126.371 26.6591 126.897 26.2714 127.362 25.7891L128.99 27.753C128.602 28.3387 128.107 28.8211 127.504 29.2001C126.91 29.5705 126.268 29.8418 125.579 30.0141C124.89 30.195 124.205 30.2812 123.525 30.2725Z" fill="#161E2D"></path><path d="M136.962 27.3783C137.419 27.3869 137.823 27.3008 138.177 27.1199C138.538 26.939 138.836 26.6849 139.068 26.3576C139.301 26.0302 139.456 25.6512 139.533 25.2206L142.957 25.2076C142.88 26.2499 142.544 27.1543 141.949 27.921C141.364 28.6876 140.619 29.2776 139.714 29.6911C138.818 30.1046 137.867 30.2984 136.859 30.2725C135.851 30.2553 134.985 30.0529 134.262 29.6653C133.547 29.2776 132.97 28.7608 132.53 28.1148C132.091 27.4601 131.781 26.715 131.6 25.8795C131.428 25.044 131.385 24.1654 131.471 23.2437L131.51 22.8561C131.613 21.8913 131.845 20.9783 132.207 20.1169C132.569 19.2469 133.051 18.4846 133.654 17.8299C134.266 17.1667 134.985 16.6541 135.812 16.2924C136.639 15.922 137.574 15.7497 138.616 15.7755C139.693 15.7928 140.614 16.0383 141.381 16.512C142.148 16.9772 142.729 17.6146 143.125 18.4243C143.53 19.234 143.724 20.1643 143.707 21.2151L140.296 21.2022C140.304 20.7801 140.248 20.3796 140.128 20.0006C140.007 19.613 139.8 19.3029 139.507 19.0703C139.223 18.8291 138.836 18.6956 138.345 18.6698C137.767 18.6525 137.285 18.7731 136.897 19.0316C136.51 19.2814 136.195 19.6216 135.954 20.0523C135.713 20.4744 135.528 20.9352 135.399 21.4348C135.269 21.9258 135.179 22.4038 135.127 22.869L135.101 23.2437C135.058 23.6313 135.033 24.062 135.024 24.5358C135.015 25.0009 135.063 25.4488 135.166 25.8795C135.269 26.3016 135.459 26.6547 135.735 26.939C136.019 27.2146 136.428 27.3611 136.962 27.3783Z" fill="#161E2D"></path><path d="M151.214 10.168L147.764 30.0141H144.133L147.583 10.168H151.214ZM148.578 22.5331L147.635 22.546C147.729 21.7535 147.914 20.9524 148.19 20.1427C148.474 19.333 148.858 18.5966 149.34 17.9333C149.822 17.2614 150.412 16.7274 151.11 16.3311C151.817 15.9263 152.635 15.7368 153.565 15.7626C154.349 15.7798 154.999 15.9392 155.516 16.2407C156.042 16.5336 156.451 16.9341 156.744 17.4423C157.036 17.9419 157.23 18.5147 157.325 19.1608C157.42 19.7982 157.428 20.4701 157.351 21.1764L155.878 30.0141H152.221L153.72 21.1376C153.772 20.6811 153.759 20.2719 153.681 19.9102C153.612 19.5398 153.445 19.2469 153.177 19.0316C152.919 18.8076 152.536 18.6913 152.028 18.6827C151.468 18.6655 150.985 18.7645 150.58 18.9799C150.184 19.1952 149.848 19.4924 149.573 19.8714C149.297 20.2418 149.082 20.6596 148.927 21.1247C148.772 21.5812 148.655 22.0507 148.578 22.5331Z" fill="#161E2D"></path></g></svg>