<svg width="161" height="39" viewBox="0 0 161 39" fill="none" xmlns="http://www.w3.org/2000/svg"><g opacity="0.5"><path d="M36.379 13.4941C36.3791 11.2763 35.7094 9.11018 34.4576 7.27948C33.2058 5.44877 31.4302 4.03881 29.3635 3.2343C27.2969 2.42977 25.0353 2.2682 22.8753 2.77073C20.7151 3.27326 18.7572 4.41648 17.2578 6.05062H3.35156V35.4009H32.713V21.684C33.8654 20.6533 34.7876 19.3912 35.4192 17.9799C36.0509 16.5687 36.378 15.0402 36.379 13.4941ZM30.7295 13.4941C30.7318 14.5567 30.4187 15.5963 29.8299 16.481C29.241 17.3656 28.403 18.0558 27.4218 18.464C26.4405 18.8723 25.3604 18.9802 24.3177 18.7742C23.2752 18.5683 22.3171 18.0576 21.5649 17.3069C20.8126 16.5562 20.3001 15.5993 20.0919 14.5571C19.8838 13.515 19.9895 12.4345 20.3957 11.4525C20.8018 10.4704 21.4902 9.63092 22.3736 9.04027C23.2571 8.44962 24.296 8.13435 25.3587 8.13434C26.7812 8.13434 28.1456 8.69867 29.1525 9.70348C30.1595 10.7083 30.7267 12.0716 30.7295 13.4941ZM27.0635 29.7515H9.00099V11.7001H14.5055C14.3992 12.2923 14.3433 12.8924 14.3384 13.4941C14.3414 16.4159 15.5034 19.2172 17.5695 21.2834C19.6355 23.3493 22.4368 24.5114 25.3587 24.5143C25.93 24.5113 26.5 24.4629 27.0635 24.3695V29.7515Z" fill="#161E2D"></path><path d="M47.2278 30.0861V13.3719H42.0664V10.1627H55.9727V13.3719H50.8916V30.0861H47.2278Z" fill="#161E2D"></path><path d="M58.5922 35.9963C58.2 35.9963 57.8167 35.9607 57.4423 35.8893C57.0679 35.8359 56.7292 35.7378 56.4261 35.5952V32.6535C56.6578 32.7069 56.9342 32.7604 57.2551 32.8139C57.5938 32.8674 57.9058 32.8941 58.1911 32.8941C58.9934 32.8941 59.5728 32.7069 59.9294 32.3325C60.3038 31.9581 60.6336 31.4679 60.9189 30.8617L61.8816 28.6153L61.8281 31.557L55.4901 15.538H59.2608L63.7001 27.3584H62.363L66.7756 15.538H70.573L64.235 31.557C63.8606 32.5019 63.406 33.3042 62.8711 33.9639C62.3362 34.6235 61.7122 35.1227 60.9991 35.4615C60.3038 35.818 59.5015 35.9963 58.5922 35.9963Z" fill="#161E2D"></path><path d="M76.3871 30.4071C75.3709 30.4071 74.4884 30.2377 73.7396 29.8989C72.9908 29.5602 72.4113 29.0788 72.0013 28.4548C71.5912 27.813 71.3862 27.0731 71.3862 26.2352C71.3862 25.4329 71.5645 24.7197 71.9211 24.0957C72.2776 23.4539 72.8303 22.9191 73.5791 22.4912C74.3279 22.0633 75.2728 21.7602 76.4139 21.5819L81.1741 20.8064V23.4807L77.0824 24.176C76.3871 24.3008 75.8701 24.5236 75.5313 24.8445C75.1926 25.1655 75.0232 25.5844 75.0232 26.1015C75.0232 26.6007 75.2104 27.0018 75.5848 27.3049C75.9771 27.5901 76.4584 27.7328 77.0289 27.7328C77.7599 27.7328 78.4017 27.5812 78.9544 27.2781C79.5249 26.9572 79.9617 26.5204 80.2648 25.9677C80.5857 25.4151 80.7462 24.8089 80.7462 24.1492V20.4052C80.7462 19.7812 80.4966 19.2642 79.9974 18.8541C79.516 18.4263 78.8742 18.2123 78.0719 18.2123C77.3231 18.2123 76.6545 18.4173 76.0662 18.8274C75.4957 19.2196 75.0767 19.7456 74.8093 20.4052L71.9478 19.0146C72.2331 18.248 72.6788 17.5883 73.2849 17.0356C73.9089 16.4651 74.6399 16.0194 75.4779 15.6985C76.3158 15.3776 77.2251 15.2171 78.2056 15.2171C79.4001 15.2171 80.452 15.44 81.3613 15.8857C82.2705 16.3136 82.9748 16.9197 83.474 17.7042C83.991 18.4708 84.2495 19.3712 84.2495 20.4052V30.0861H80.9334V27.5991L81.6822 27.5456C81.3078 28.1696 80.8621 28.6955 80.3451 29.1234C79.828 29.5335 79.2397 29.8544 78.58 30.0861C77.9204 30.3001 77.1894 30.4071 76.3871 30.4071Z" fill="#161E2D"></path><path d="M91.9001 30.4071C90.8838 30.4071 90.0013 30.2377 89.2525 29.8989C88.5037 29.5602 87.9243 29.0788 87.5142 28.4548C87.1042 27.813 86.8991 27.0731 86.8991 26.2352C86.8991 25.4329 87.0774 24.7197 87.434 24.0957C87.7906 23.4539 88.3433 22.9191 89.0921 22.4912C89.8409 22.0633 90.7858 21.7602 91.9268 21.5819L96.687 20.8064V23.4807L92.5954 24.176C91.9001 24.3008 91.383 24.5236 91.0443 24.8445C90.7055 25.1655 90.5362 25.5844 90.5362 26.1015C90.5362 26.6007 90.7234 27.0018 91.0978 27.3049C91.49 27.5901 91.9714 27.7328 92.5419 27.7328C93.2729 27.7328 93.9147 27.5812 94.4674 27.2781C95.0379 26.9572 95.4747 26.5204 95.7778 25.9677C96.0987 25.4151 96.2591 24.8089 96.2591 24.1492V20.4052C96.2591 19.7812 96.0095 19.2642 95.5103 18.8541C95.029 18.4263 94.3871 18.2123 93.5849 18.2123C92.8361 18.2123 92.1675 18.4173 91.5791 18.8274C91.0086 19.2196 90.5897 19.7456 90.3222 20.4052L87.4607 19.0146C87.746 18.248 88.1917 17.5883 88.7979 17.0356C89.4219 16.4651 90.1529 16.0194 90.9908 15.6985C91.8287 15.3776 92.738 15.2171 93.7186 15.2171C94.9131 15.2171 95.965 15.44 96.8742 15.8857C97.7835 16.3136 98.4877 16.9197 98.9869 17.7042C99.5039 18.4708 99.7625 19.3712 99.7625 20.4052V30.0861H96.4463V27.5991L97.1951 27.5456C96.8207 28.1696 96.375 28.6955 95.858 29.1234C95.341 29.5335 94.7526 29.8544 94.093 30.0861C93.4333 30.3001 92.7023 30.4071 91.9001 30.4071Z" fill="#161E2D"></path><path d="M103 30.0861V9.8418H106.504V30.0861H103Z" fill="#161E2D"></path><path d="M109.738 35.4347V15.538H113.028V18.4263L112.707 17.7042C113.206 16.9197 113.884 16.3136 114.739 15.8857C115.595 15.44 116.585 15.2171 117.708 15.2171C119.081 15.2171 120.32 15.5559 121.425 16.2333C122.53 16.9108 123.404 17.8201 124.046 18.9611C124.705 20.1021 125.035 21.3858 125.035 22.8121C125.035 24.2205 124.714 25.5042 124.073 26.6631C123.431 27.8219 122.557 28.7401 121.452 29.4176C120.346 30.0772 119.089 30.4071 117.681 30.4071C116.629 30.4071 115.657 30.202 114.766 29.792C113.892 29.3641 113.197 28.7579 112.68 27.9735L113.242 27.2781V35.4347H109.738ZM117.28 27.1979C118.082 27.1979 118.795 27.0107 119.419 26.6363C120.043 26.2619 120.525 25.7449 120.863 25.0852C121.22 24.4256 121.398 23.6679 121.398 22.8121C121.398 21.9563 121.22 21.2075 120.863 20.5657C120.525 19.906 120.043 19.389 119.419 19.0146C118.795 18.6224 118.082 18.4263 117.28 18.4263C116.513 18.4263 115.818 18.6135 115.194 18.9879C114.588 19.3623 114.106 19.8882 113.75 20.5657C113.411 21.2253 113.242 21.9741 113.242 22.8121C113.242 23.6679 113.411 24.4256 113.75 25.0852C114.106 25.7449 114.588 26.2619 115.194 26.6363C115.818 27.0107 116.513 27.1979 117.28 27.1979Z" fill="#161E2D"></path><path d="M127.706 30.0861V9.8418H131.21V18.3995L130.728 17.8914C131.067 17.0178 131.62 16.3581 132.386 15.9124C133.171 15.4489 134.08 15.2171 135.114 15.2171C136.184 15.2171 137.129 15.4489 137.949 15.9124C138.787 16.376 139.437 17.0267 139.901 17.8647C140.365 18.6848 140.596 19.6386 140.596 20.7261V30.0861H137.093V21.5552C137.093 20.9133 136.968 20.3607 136.719 19.8971C136.469 19.4336 136.121 19.077 135.676 18.8274C135.248 18.56 134.74 18.4263 134.151 18.4263C133.581 18.4263 133.073 18.56 132.627 18.8274C132.181 19.077 131.834 19.4336 131.584 19.8971C131.334 20.3607 131.21 20.9133 131.21 21.5552V30.0861H127.706Z" fill="#161E2D"></path><path d="M147.971 30.4071C146.955 30.4071 146.073 30.2377 145.324 29.8989C144.575 29.5602 143.996 29.0788 143.585 28.4548C143.175 27.813 142.97 27.0731 142.97 26.2352C142.97 25.4329 143.149 24.7197 143.505 24.0957C143.862 23.4539 144.414 22.9191 145.163 22.4912C145.912 22.0633 146.857 21.7602 147.998 21.5819L152.758 20.8064V23.4807L148.667 24.176C147.971 24.3008 147.454 24.5236 147.116 24.8445C146.777 25.1655 146.607 25.5844 146.607 26.1015C146.607 26.6007 146.795 27.0018 147.169 27.3049C147.561 27.5901 148.043 27.7328 148.613 27.7328C149.344 27.7328 149.986 27.5812 150.539 27.2781C151.109 26.9572 151.546 26.5204 151.849 25.9677C152.17 25.4151 152.33 24.8089 152.33 24.1492V20.4052C152.33 19.7812 152.081 19.2642 151.582 18.8541C151.1 18.4263 150.458 18.2123 149.656 18.2123C148.907 18.2123 148.239 18.4173 147.65 18.8274C147.08 19.2196 146.661 19.7456 146.393 20.4052L143.532 19.0146C143.817 18.248 144.263 17.5883 144.869 17.0356C145.493 16.4651 146.224 16.0194 147.062 15.6985C147.9 15.3776 148.809 15.2171 149.79 15.2171C150.984 15.2171 152.036 15.44 152.945 15.8857C153.855 16.3136 154.559 16.9197 155.058 17.7042C155.575 18.4708 155.834 19.3712 155.834 20.4052V30.0861H152.518V27.5991L153.266 27.5456C152.892 28.1696 152.446 28.6955 151.929 29.1234C151.412 29.5335 150.824 29.8544 150.164 30.0861C149.505 30.3001 148.774 30.4071 147.971 30.4071Z" fill="#161E2D"></path></g></svg>