<svg width="151" height="39" viewBox="0 0 151 39" fill="none" xmlns="http://www.w3.org/2000/svg"><g opacity="0.5"><path d="M18.2284 7.93359V3.18359H3.25195V35.8189H18.2284V31.0689C15.1605 31.0689 12.2182 29.8501 10.0489 27.6808C7.8795 25.5114 6.66078 22.5692 6.66078 19.5013C6.66078 16.4333 7.8795 13.491 10.0489 11.3217C12.2182 9.15233 15.1605 7.93359 18.2284 7.93359Z" fill="#161E2D"></path><path d="M18.2285 7.93359V31.0689C21.2965 31.0689 24.2388 29.8501 26.4081 27.6808C28.5775 25.5114 29.7962 22.5692 29.7962 19.5013C29.7962 16.4333 28.5775 13.491 26.4081 11.3217C24.2388 9.15233 21.2965 7.93359 18.2285 7.93359Z" fill="#161E2D"></path><path d="M142.008 14.7399C143.366 14.7399 144.466 13.639 144.466 12.2811C144.466 10.9231 143.366 9.82227 142.008 9.82227C140.65 9.82227 139.549 10.9231 139.549 12.2811C139.549 13.639 140.65 14.7399 142.008 14.7399Z" fill="#161E2D"></path><path d="M45.3016 24.4599L49.794 9.37167H54.1685L47.5281 28.4415H44.6467L45.3016 24.4599ZM41.1628 9.37167L45.6421 24.4599L46.3232 28.4415H43.4156L36.8145 9.37167H41.1628Z" fill="#161E2D"></path><path d="M62.7605 25.2457V18.9328C62.7605 18.4787 62.6862 18.0902 62.5378 17.7671C62.3894 17.4353 62.158 17.1777 61.8436 16.9944C61.538 16.811 61.1407 16.7193 60.6518 16.7193C60.2327 16.7193 59.8703 16.7935 59.5647 16.942C59.2591 17.0817 59.0233 17.2869 58.8574 17.5576C58.6915 17.8195 58.6086 18.1295 58.6086 18.4875H54.8365C54.8365 17.885 54.9762 17.3131 55.2556 16.7717C55.535 16.2304 55.9411 15.7545 56.4737 15.3441C57.0063 14.925 57.6394 14.5975 58.3728 14.3618C59.115 14.126 59.9445 14.0082 60.8613 14.0082C61.9615 14.0082 62.9395 14.1915 63.7952 14.5582C64.6509 14.925 65.3232 15.4751 65.8122 16.2085C66.3099 16.942 66.5587 17.8588 66.5587 18.959V25.0231C66.5587 25.8002 66.6067 26.4376 66.7028 26.9353C66.7988 27.4243 66.9385 27.8521 67.1219 28.2189V28.4415H63.3105C63.1272 28.0573 62.9875 27.5771 62.8914 27.0008C62.8041 26.4158 62.7605 25.8308 62.7605 25.2457ZM63.2582 19.8103L63.2844 21.9452H61.1757C60.678 21.9452 60.2458 22.002 59.879 22.1155C59.5123 22.229 59.2111 22.3905 58.9753 22.6001C58.7395 22.8009 58.5649 23.0366 58.4514 23.3073C58.3466 23.578 58.2942 23.8749 58.2942 24.198C58.2942 24.521 58.3685 24.8135 58.5169 25.0755C58.6653 25.3287 58.8793 25.5295 59.1587 25.678C59.4381 25.8177 59.7655 25.8875 60.141 25.8875C60.7085 25.8875 61.2019 25.774 61.621 25.547C62.0401 25.32 62.3632 25.0406 62.5902 24.7088C62.8259 24.377 62.9482 24.0626 62.9569 23.7657L63.9523 25.3636C63.8126 25.7216 63.6205 26.0927 63.376 26.4769C63.1403 26.8611 62.839 27.2235 62.4723 27.564C62.1056 27.8958 61.6646 28.1708 61.1495 28.3891C60.6343 28.5987 60.0231 28.7035 59.3158 28.7035C58.4165 28.7035 57.6001 28.5245 56.8666 28.1665C56.1419 27.7997 55.5656 27.2977 55.1378 26.6603C54.7186 26.0141 54.5091 25.2807 54.5091 24.4599C54.5091 23.7177 54.6488 23.0585 54.9282 22.4822C55.2076 21.9059 55.618 21.4213 56.1594 21.0284C56.7094 20.6267 57.3949 20.3255 58.2157 20.1247C59.0364 19.9151 59.9882 19.8103 61.0709 19.8103H63.2582Z" fill="#161E2D"></path><path d="M73.1598 17.2956V28.4415H69.3878V14.2701H72.9241L73.1598 17.2956ZM72.6097 20.8581H71.5881C71.5881 19.8103 71.7235 18.8673 71.9941 18.0291C72.2648 17.1821 72.6446 16.4617 73.1336 15.868C73.6226 15.2655 74.2032 14.8071 74.8756 14.4928C75.5566 14.1697 76.3163 14.0082 77.1545 14.0082C77.8181 14.0082 78.425 14.1042 78.9751 14.2963C79.5252 14.4884 79.9967 14.794 80.3896 15.2131C80.7912 15.6322 81.0969 16.1867 81.3064 16.8765C81.5247 17.5663 81.6339 18.4089 81.6339 19.4043V28.4415H77.8356V19.3912C77.8356 18.7625 77.7483 18.2736 77.5736 17.9243C77.399 17.575 77.1414 17.3305 76.8009 17.1908C76.4691 17.0424 76.0587 16.9682 75.5697 16.9682C75.0633 16.9682 74.6224 17.0686 74.2469 17.2694C73.8802 17.4702 73.5746 17.7497 73.3301 18.1077C73.0943 18.4569 72.9153 18.8673 72.7931 19.3388C72.6708 19.8103 72.6097 20.3167 72.6097 20.8581Z" fill="#161E2D"></path><path d="M89.3089 28.4415H85.5107V13.0128C85.5107 11.9388 85.7202 11.035 86.1394 10.3016C86.5672 9.5594 87.1653 9.00057 87.9337 8.62511C88.7108 8.24092 89.632 8.04883 90.6973 8.04883C91.0465 8.04883 91.3827 8.07502 91.7058 8.12741C92.0288 8.17107 92.3432 8.22783 92.6488 8.29768L92.6095 11.1398C92.4436 11.0962 92.269 11.0656 92.0856 11.0481C91.9022 11.0307 91.6883 11.0219 91.4438 11.0219C90.9898 11.0219 90.6012 11.1005 90.2782 11.2577C89.9638 11.4061 89.7237 11.6288 89.5578 11.9257C89.3919 12.2225 89.3089 12.5849 89.3089 13.0128V28.4415ZM92.138 14.2701V16.942H83.402V14.2701H92.138Z" fill="#161E2D"></path><path d="M101.765 25.2457V18.9328C101.765 18.4787 101.69 18.0902 101.542 17.7671C101.394 17.4353 101.162 17.1777 100.848 16.9944C100.542 16.811 100.145 16.7193 99.6559 16.7193C99.2368 16.7193 98.8744 16.7935 98.5688 16.942C98.2632 17.0817 98.0275 17.2869 97.8616 17.5576C97.6957 17.8195 97.6127 18.1295 97.6127 18.4875H93.8407C93.8407 17.885 93.9804 17.3131 94.2598 16.7717C94.5392 16.2304 94.9452 15.7545 95.4778 15.3441C96.0105 14.925 96.6435 14.5975 97.377 14.3618C98.1191 14.126 98.9487 14.0082 99.8655 14.0082C100.966 14.0082 101.944 14.1915 102.799 14.5582C103.655 14.925 104.327 15.4751 104.816 16.2085C105.314 16.942 105.563 17.8588 105.563 18.959V25.0231C105.563 25.8002 105.611 26.4376 105.707 26.9353C105.803 27.4243 105.943 27.8521 106.126 28.2189V28.4415H102.315C102.131 28.0573 101.992 27.5771 101.896 27.0008C101.808 26.4158 101.765 25.8308 101.765 25.2457ZM102.262 19.8103L102.288 21.9452H100.18C99.6821 21.9452 99.2499 22.002 98.8832 22.1155C98.5164 22.229 98.2152 22.3905 97.9794 22.6001C97.7437 22.8009 97.5691 23.0366 97.4555 23.3073C97.3508 23.578 97.2984 23.8749 97.2984 24.198C97.2984 24.521 97.3726 24.8135 97.521 25.0755C97.6695 25.3287 97.8834 25.5295 98.1628 25.678C98.4422 25.8177 98.7697 25.8875 99.1451 25.8875C99.7127 25.8875 100.206 25.774 100.625 25.547C101.044 25.32 101.367 25.0406 101.594 24.7088C101.83 24.377 101.952 24.0626 101.961 23.7657L102.956 25.3636C102.817 25.7216 102.625 26.0927 102.38 26.4769C102.144 26.8611 101.843 27.2235 101.476 27.564C101.11 27.8958 100.669 28.1708 100.154 28.3891C99.6384 28.5987 99.0272 28.7035 98.32 28.7035C97.4206 28.7035 96.6042 28.5245 95.8708 28.1665C95.146 27.7997 94.5697 27.2977 94.1419 26.6603C93.7228 26.0141 93.5132 25.2807 93.5132 24.4599C93.5132 23.7177 93.6529 23.0585 93.9323 22.4822C94.2117 21.9059 94.6221 21.4213 95.1635 21.0284C95.7136 20.6267 96.399 20.3255 97.2198 20.1247C98.0406 19.9151 98.9923 19.8103 100.075 19.8103H102.262Z" fill="#161E2D"></path><path d="M108.47 8.32387H112.243V25.1934L111.863 28.4415H108.47V8.32387ZM121.214 21.2117V21.4868C121.214 22.5433 121.101 23.5125 120.874 24.3944C120.655 25.2763 120.315 26.0403 119.852 26.6865C119.389 27.3239 118.813 27.8216 118.123 28.1796C117.442 28.5288 116.639 28.7035 115.713 28.7035C114.849 28.7035 114.098 28.5288 113.461 28.1796C112.832 27.8303 112.304 27.337 111.876 26.6996C111.448 26.0622 111.103 25.3156 110.841 24.4599C110.579 23.6042 110.383 22.6699 110.252 21.6571V21.0546C110.383 20.0417 110.579 19.1074 110.841 18.2517C111.103 17.396 111.448 16.6495 111.876 16.0121C112.304 15.3747 112.832 14.8813 113.461 14.5321C114.089 14.1828 114.831 14.0082 115.687 14.0082C116.621 14.0082 117.433 14.1872 118.123 14.5452C118.822 14.8944 119.398 15.3921 119.852 16.0383C120.315 16.6757 120.655 17.4353 120.874 18.3172C121.101 19.1904 121.214 20.1552 121.214 21.2117ZM117.442 21.4868V21.2117C117.442 20.6355 117.399 20.0941 117.311 19.5877C117.233 19.0725 117.093 18.6228 116.892 18.2386C116.691 17.8457 116.416 17.5357 116.067 17.3087C115.726 17.0817 115.286 16.9682 114.744 16.9682C114.229 16.9682 113.792 17.0555 113.434 17.2301C113.076 17.4048 112.78 17.6492 112.544 17.9636C112.317 18.2779 112.146 18.6534 112.033 19.09C111.919 19.5178 111.85 19.9893 111.823 20.5045V22.2202C111.85 22.91 111.963 23.5213 112.164 24.0539C112.374 24.5778 112.688 24.9925 113.107 25.2981C113.535 25.595 114.089 25.7435 114.77 25.7435C115.303 25.7435 115.744 25.6387 116.093 25.4291C116.442 25.2196 116.713 24.9227 116.905 24.5385C117.106 24.1543 117.246 23.7046 117.324 23.1895C117.403 22.6656 117.442 22.098 117.442 21.4868Z" fill="#161E2D"></path><path d="M131.208 25.2457V18.9328C131.208 18.4787 131.133 18.0902 130.985 17.7671C130.837 17.4353 130.605 17.1777 130.291 16.9944C129.985 16.811 129.588 16.7193 129.099 16.7193C128.68 16.7193 128.317 16.7935 128.012 16.942C127.706 17.0817 127.47 17.2869 127.305 17.5576C127.139 17.8195 127.056 18.1295 127.056 18.4875H123.284C123.284 17.885 123.423 17.3131 123.703 16.7717C123.982 16.2304 124.388 15.7545 124.921 15.3441C125.453 14.925 126.087 14.5975 126.82 14.3618C127.562 14.126 128.392 14.0082 129.308 14.0082C130.409 14.0082 131.387 14.1915 132.242 14.5582C133.098 14.925 133.77 15.4751 134.259 16.2085C134.757 16.942 135.006 17.8588 135.006 18.959V25.0231C135.006 25.8002 135.054 26.4376 135.15 26.9353C135.246 27.4243 135.386 27.8521 135.569 28.2189V28.4415H131.758C131.574 28.0573 131.435 27.5771 131.339 27.0008C131.251 26.4158 131.208 25.8308 131.208 25.2457ZM131.705 19.8103L131.732 21.9452H129.623C129.125 21.9452 128.693 22.002 128.326 22.1155C127.959 22.229 127.658 22.3905 127.422 22.6001C127.187 22.8009 127.012 23.0366 126.899 23.3073C126.794 23.578 126.741 23.8749 126.741 24.198C126.741 24.521 126.816 24.8135 126.964 25.0755C127.112 25.3287 127.326 25.5295 127.606 25.678C127.885 25.8177 128.213 25.8875 128.588 25.8875C129.156 25.8875 129.649 25.774 130.068 25.547C130.487 25.32 130.81 25.0406 131.037 24.7088C131.273 24.377 131.395 24.0626 131.404 23.7657L132.399 25.3636C132.26 25.7216 132.068 26.0927 131.823 26.4769C131.587 26.8611 131.286 27.2235 130.919 27.564C130.553 27.8958 130.112 28.1708 129.597 28.3891C129.081 28.5987 128.47 28.7035 127.763 28.7035C126.864 28.7035 126.047 28.5245 125.314 28.1665C124.589 27.7997 124.013 27.2977 123.585 26.6603C123.166 26.0141 122.956 25.2807 122.956 24.4599C122.956 23.7177 123.096 23.0585 123.375 22.4822C123.655 21.9059 124.065 21.4213 124.607 21.0284C125.157 20.6267 125.842 20.3255 126.663 20.1247C127.484 19.9151 128.435 19.8103 129.518 19.8103H131.705Z" fill="#161E2D"></path></g></svg>